<mxfile host="app.diagrams.net" modified="2024-04-02T01:45:04.049Z" agent="Mozilla/5.0 (Windows NT 10.0; Win64; x64) AppleWebKit/537.36 (KHTML, like Gecko) Chrome/105.0.0.0 Safari/537.36" version="24.2.1" etag="nIR0mwC2BENpKnp7ITFx" type="github">
  <diagram name="第 1 页" id="z8YpLylYxEg7BoMA8zlV">
    <mxGraphModel>
      <root>
        <mxCell id="0" />
        <mxCell id="1" parent="0" />
      </root>
    </mxGraphModel>
  </diagram>
</mxfile>
